PathFileType	4	(X/Y/Z)	D:\TRACE\v60_Jaco2_6-2-23\JustBodyDRS_Motion3_10-v60.trc
DataRate	CameraRate	NumFrames	NumMarkers	Units	OrigDataRate	OrigDataStartFrame	OrigNumFrames
100.00	100.00	      21	9	mm	100.00	3501	      7000
Frame#	Time	front left toe			Front right toe			aft left toe			aft right toe			Arm			FL body			FR body			AL Body			AR Body			
		X1	Y1	Z1	X2	Y2	Z2	X3	Y3	Z3	X4	Y4	Z4	X5	Y5	Z5	X6	Y6	Z6	X7	Y7	Z7	X8	Y8	Z8	X9	Y9	Z9	

3501	35.000	-177.36330	11.74445	-241.49681	195.27698	110.52793	-237.26720	-159.98923	126.06168	398.46603	216.19724	15.77689	367.06393	20.62697	1163.62354	-323.72086	-78.01049	517.04114	-407.56055	80.96694	517.63318	-412.82364	-40.31537	556.79736	535.43750	111.97103	548.85022	530.80756	
3502	35.010	-177.59932	11.83241	-241.30589	195.23636	102.95894	-236.86794	-160.38092	118.22952	399.45193	216.03174	15.27382	367.14819	21.06891	1163.76672	-322.28180	-78.52856	517.08258	-406.41916	80.19141	517.81213	-412.04068	-40.03062	556.18671	536.30621	112.32673	548.03790	531.78168	
3503	35.020	-177.98264	11.87717	-241.07095	194.29277	94.48458	-236.71227	-160.14232	109.46640	400.12592	215.83040	15.07915	367.17047	21.60925	1163.81641	-320.47198	-79.08432	517.24194	-405.40344	79.74514	517.88470	-411.10361	-39.51781	555.49512	537.43719	112.65044	547.33313	532.65503	
3504	35.030	-178.31082	12.08772	-240.78316	194.52217	86.03557	-236.10120	-160.12386	101.26932	401.50266	215.79912	14.96458	367.30573	21.41487	1163.92419	-318.91855	-79.53902	517.47278	-404.07242	79.24722	517.75867	-410.06241	-39.25780	556.14709	539.24884	113.09351	546.85626	533.68884	
3505	35.040	-178.64333	12.41530	-240.52957	193.00409	76.81165	-235.51018	-159.66660	92.27981	402.83600	215.32860	14.66485	367.45541	21.09221	1164.16870	-317.58521	-80.07648	517.96600	-403.13718	78.16805	518.35510	-408.80582	-39.08445	555.17163	540.06116	112.79808	546.47955	534.79803	
3506	35.050	-178.82143	12.64359	-240.38232	192.01350	67.74029	-234.13766	-159.22969	82.97803	404.44797	215.04588	14.15650	367.51724	20.82336	1164.39490	-315.99741	-80.43506	518.19434	-401.85370	78.42452	518.53003	-408.10162	-38.76502	554.78021	541.45276	114.28696	545.88812	536.20465	
3507	35.060	-179.19409	12.92350	-240.15990	192.95680	59.40311	-231.38322	-159.00304	74.32633	406.39465	214.68748	13.54358	367.64297	21.07142	1164.56628	-314.54382	-80.87875	518.59399	-400.73743	77.95514	518.68042	-406.74588	-38.12407	554.24457	542.50470	114.01886	545.03680	536.10168	
3508	35.070	-179.41408	13.05215	-239.93488	192.88858	50.62126	-229.55984	-158.94771	66.08527	408.42862	214.49516	12.96371	367.93991	21.29151	1164.79370	-312.52496	-81.10427	518.73065	-399.17575	77.81056	518.77887	-405.43164	-37.66747	553.94098	543.91864	114.53244	544.51288	537.55994	
3509	35.080	-179.60197	13.14861	-239.69051	193.95355	43.42999	-226.42146	-158.36374	58.00508	410.63101	214.35843	12.80639	368.15524	20.90009	1165.03003	-310.93460	-81.41833	518.84082	-397.58429	77.19234	519.08344	-404.31921	-37.60120	553.53778	545.33588	115.07219	544.35101	538.64813	
3510	35.090	-179.90376	13.43146	-239.47255	194.79395	35.95019	-224.50580	-157.25421	50.28420	412.97171	213.99960	12.54362	368.26205	21.30625	1165.00146	-309.32629	-81.75683	519.22870	-396.17871	77.05930	519.07880	-402.74344	-37.41988	553.53485	546.86884	115.34219	544.24207	539.99677	
3511	35.100	-180.25661	13.76275	-239.24716	195.41518	29.76951	-222.16060	-157.15285	43.65359	415.77463	213.68245	12.31597	368.46481	21.64915	1164.99011	-307.33994	-82.09615	519.69696	-394.87485	76.70802	519.34729	-401.41144	-36.51351	553.18964	548.49329	115.92961	544.03882	541.75525	
3512	35.110	-180.63396	13.97271	-239.13623	196.45518	24.07578	-219.72119	-155.84718	37.19910	417.55432	213.72499	12.18355	368.58945	21.95001	1165.18030	-305.45767	-82.09953	519.86761	-392.98203	76.39967	519.65503	-399.78995	-36.24114	552.79242	550.09637	116.40490	543.54718	543.15417	
3513	35.120	-181.16010	14.23878	-238.79063	196.53090	20.27681	-220.31860	-155.54939	30.96045	420.03564	213.55582	11.76333	368.80978	21.50802	1165.67957	-303.67523	-82.23800	520.05176	-391.05173	76.48932	519.91718	-397.96246	-35.73441	552.77313	551.88654	115.47538	543.40167	544.74133	
3514	35.130	-181.27734	14.36389	-238.51469	196.66988	17.68118	-220.17386	-155.15952	24.19085	422.29324	212.87755	11.11794	368.93741	21.66189	1165.78870	-301.43893	-81.66009	520.54626	-389.32343	76.27859	520.70789	-396.15155	-35.22944	552.44592	553.75006	116.90883	543.23242	546.67841	
3515	35.140	-181.40434	14.69419	-238.23923	197.03627	18.29394	-220.26979	-154.73335	17.10774	424.35104	212.45911	10.77149	369.13843	21.22372	1166.44629	-298.70984	-82.70149	521.84460	-387.36368	75.91901	522.09387	-394.22470	-34.89593	551.91730	555.92914	116.35107	542.89636	548.56915	
3516	35.150	-181.50179	15.57554	-237.95207	196.53186	19.39437	-219.58138	-154.36606	14.71597	423.51559	212.07631	10.49277	369.05368	20.81032	1167.52380	-295.46994	-82.61365	523.30414	-384.99423	75.94751	523.69025	-392.17896	-34.22892	551.55194	558.04456	117.68961	542.51587	550.51892	
3517	35.160	-181.65765	16.28249	-237.79787	195.89192	19.00915	-218.91945	-157.28201	12.16355	422.92639	211.70096	10.39878	369.41226	19.42692	1169.45007	-291.73642	-83.07076	524.30408	-382.65854	75.42776	524.39319	-390.02307	-33.50198	552.91437	560.08588	118.20137	543.42139	552.64716	
3518	35.170	-182.05305	17.47181	-236.96523	195.30247	18.52300	-218.85318	-157.85243	12.10943	425.30392	211.36711	11.66753	369.94897	18.91259	1171.46143	-288.34344	-83.45703	524.98682	-380.38998	74.70488	524.92712	-387.51074	-32.86694	554.54108	562.46564	118.89822	544.64978	554.98145	
3519	35.180	-180.83481	22.08633	-233.94069	194.95779	18.54793	-218.97350	-156.65347	11.16852	424.93808	208.91260	14.78299	373.96799	18.42329	1172.78625	-286.31250	-84.16178	525.85309	-378.03796	73.91440	525.88177	-384.88684	-32.30423	554.83624	565.01569	119.28522	545.47540	557.07141	
3520	35.190	-177.39240	25.93685	-229.64709	194.48331	19.12516	-218.90337	-157.72876	11.64178	425.08130	205.62746	19.24250	377.32721	18.30879	1172.92944	-285.06168	-84.58356	526.81500	-375.53671	73.62563	527.31689	-382.66660	-32.06063	554.57129	567.46478	119.67682	545.27936	559.21930	
3521	35.200	-173.92233	33.90802	-226.57544	193.72014	19.16720	-218.93835	-157.51781	10.44511	425.43793	204.79855	27.37578	380.24182	18.12866	1172.59753	-283.30539	-84.98404	528.02618	-373.19485	73.03758	528.34753	-380.99808	-31.73357	554.21198	569.64807	120.33641	544.67706	561.56598	
